<?xml version="1.0" encoding="UTF-8"?>
<svg data-bbox="102.23 88.65 1071.97 198.71" viewBox="0 0 1276.47 376.03" xmlns="http://www.w3.org/2000/svg" data-type="color">
    <g>
        <path d="m221.73 178.17 71-73.25a51.23 51.23 0 0 1 36.79-15.73v61.87c0 15-11.76 27.11-26.27 27.11h-81.52m-11.7 0h-81.5c-14.51 0-26.27-12.14-26.27-27.11V89.19a51.21 51.21 0 0 1 36.79 15.73Z" fill="#ffffff" data-color="1"/>
        <path d="m221.73 198 71 73.25A51.23 51.23 0 0 0 329.49 287v-61.91c0-15-11.76-27.11-26.27-27.11h-81.49M210 198h-81.5c-14.51 0-26.27 12.14-26.27 27.11V287a51.21 51.21 0 0 0 36.79-15.73Z" fill="#ffffff" data-color="1"/>
        <path d="M523.91 196.7v33.93h-64.47V196.7h-26.9v90.64h26.9v-35h64.47v35h26.9V196.7Z" fill="#ffffff" data-color="1"/>
        <path d="M602 267.59v-17.2h69.8v-17.16H602v-16.8h74.05V196.7H575.57v90.64h101.49v-19.75Z" fill="#ffffff" data-color="1"/>
        <path d="M780.72 196.7h-36.78l-51 90.64h30.47l8.8-16.34h59.68l.14.26 8.97 16.08h29.38Zm-39 56.19 20.34-38.11.42.82 20.2 37.29Z" fill="#ffffff" data-color="1"/>
        <path d="M871.32 265.65V196.7h-26.88v90.64h89.95v-21.69Z" fill="#ffffff" data-color="1"/>
        <path d="M928.23 196.7v21.66H969v69h26.91v-69h40.8V196.7Z" fill="#ffffff" data-color="1"/>
        <path d="M1146.82 196.7v33.93h-64.47V196.7h-26.9v90.64h26.9v-35h64.47v35h26.88V196.7Z" fill="#ffffff" data-color="1"/>
        <path d="M432.05 89.73h36.19l27.32 57.87 27.2-57.87h36v87.14h-22.29l1.13-67.29-33.27 67.29h-18.21l-32.71-67.29.67 67.29h-22Z" fill="#ffffff" data-color="1"/>
        <path d="M697.08 89.73h36.31L778.8 156l-.56-66.23h21.58v87.14h-36.65l-44.73-65.59.56 65.59h-21.92Z" fill="#ffffff" data-color="1"/>
        <path d="M819.25 89.73h22.82v87.14h-22.82Z" fill="#ffffff" data-color="1"/>
        <path d="M890 111.28h-33.43V89.73h89.59v21.55h-33.39v65.59H890Z" fill="#ffffff" data-color="1"/>
        <path d="M1079.79 89.73c14.84 2 77.67-5.24 88 5.48 4.39 4.05 6.41 11.5 6.41 23.26 0 16.2-3.37 22.6-12.93 25.08 14.82 1.08 11.67 19.76 11.92 33.32H1150c-.4-11.87 3.19-23.68-12.59-22h-35v22h-22.7Zm58.34 43.89c11 0 13.15-1.56 13.15-10.19 0-5.61-.45-8-1.91-9.8-4-5.16-40.45-1.38-46.88-2.48v22.47Z" fill="#ffffff" data-color="1"/>
        <path d="M659.69 90c11.61 2.47 17.24 9.37 18.82 23.31q.68 5.28.68 21.1c0 21-1.92 29.43-8.34 35.55-4.51 4.43-10.82 6.52-21.75 7-4.06.26-14.09.39-21.41.39-17.92 0-27.05-.39-31.56-1.44-8.34-1.69-13.18-5.34-16-11.72s-3.61-12.76-3.61-31.78c0-14.58.23-18.23 1.58-24.09 2.14-9.25 6.54-14.2 15-17.06 6.31-2.08 13.18-2.61 33-2.61 21.65.04 28.3.35 33.59 1.35Zm-56.12 23c-3 2.73-4 7-4 19.53 0 12.77.91 17.46 3.72 20.19 3 2.87 6.76 3.39 24 3.39 19.72 0 23.78-.78 26.37-4.95 2.14-3.13 2.7-7.55 2.7-19.15 0-21.88-.33-22.14-28.51-22.14-16.73.05-21.35.7-24.28 3.18Z" fill="#ffffff" data-color="1"/>
        <path d="M1042.58 90c11.6 2.47 17.24 9.37 18.82 23.31q.67 5.28.67 21.1c0 21-1.91 29.43-8.34 35.55-4.5 4.43-10.82 6.52-21.75 7-4 .26-14.08.39-21.41.39-17.92 0-27.05-.39-31.56-1.44-8.33-1.69-13.18-5.34-16-11.72s-3.6-12.76-3.6-31.78c0-14.58.22-18.23 1.57-24.09 2.14-9.25 6.54-14.2 15-17.06 6.31-2.08 13.19-2.61 33-2.61 21.65.04 28.3.35 33.6 1.35Zm-56.13 23c-3 2.73-3.94 7-3.94 19.53 0 12.77.9 17.46 3.72 20.19 3 2.87 6.76 3.39 24 3.39 19.72 0 23.78-.78 26.37-4.95 2.15-3.13 2.71-7.55 2.71-19.15 0-21.88-.34-22.14-28.51-22.14-16.8.05-21.42.7-24.35 3.18Z" fill="#ffffff" data-color="1"/>
    </g>
</svg>
