<?xml version="1.0" encoding="UTF-8"?>
<svg data-bbox="0 0 1071.97 198.71" viewBox="0 0 1071.97 198.71" xmlns="http://www.w3.org/2000/svg" data-type="ugc">
    <g>
        <defs>
            <radialGradient gradientUnits="userSpaceOnUse" gradientTransform="matrix(1 0 0 -1 0 378)" r="86.29" fy="332.97" fx="113.66" cy="332.97" cx="113.66" id="9fddfa38-3cd2-41c1-9dde-3faf2cb86903">
                <stop stop-color="#65e7d0" offset=".21"/>
                <stop stop-color="#57dbd4" offset=".37"/>
                <stop stop-color="#31bbdf" offset=".68"/>
                <stop stop-color="#1aa7e5" offset=".84"/>
                <stop stop-color="#1aa7e5" offset="1"/>
            </radialGradient>
            <radialGradient gradientUnits="userSpaceOnUse" gradientTransform="matrix(1 0 0 -1 0 378)" r="86.29" fy="224.16" fx="113.63" cy="224.16" cx="113.63" id="42e64d47-aacc-4e64-bd32-4a53581f5ddd">
                <stop stop-color="#d2fb21" offset="0"/>
                <stop stop-color="#c4f41d" offset=".18"/>
                <stop stop-color="#9ee113" offset=".52"/>
                <stop stop-color="#61c403" offset=".99"/>
                <stop stop-color="#60c303" offset="1"/>
                <stop stop-color="#59c502" offset="1"/>
                <stop stop-color="#4fc900" offset="1"/>
            </radialGradient>
        </defs>
        <path d="m119.5 89.52 71-73.25A51.236 51.236 0 0 1 227.29.54v61.87c0 15-11.76 27.11-26.27 27.11H119.5m-11.7 0H26.3C11.79 89.52.03 77.38.03 62.41V.54C13.92.58 27.2 6.25 36.82 16.27l70.98 73.25Z" fill="url(#9fddfa38-3cd2-41c1-9dde-3faf2cb86903)"/>
        <path d="m119.5 109.35 71 73.25a51.228 51.228 0 0 0 36.76 15.75v-61.91c0-15-11.76-27.11-26.27-27.11H119.5m-11.73.02h-81.5C11.76 109.35 0 121.49 0 136.46v61.89a51.196 51.196 0 0 0 36.79-15.73l70.98-73.27Z" fill="url(#42e64d47-aacc-4e64-bd32-4a53581f5ddd)"/>
        <path d="M421.68 108.05v33.93h-64.47v-33.93h-26.9v90.64h26.9v-35h64.47v35h26.9v-90.64h-26.9Z" fill="#4fc900"/>
        <path d="M499.77 178.94v-17.2h69.8v-17.16h-69.8v-16.8h74.05v-19.73H473.34v90.64h101.49v-19.75h-75.06Z" fill="#4fc900"/>
        <path d="M678.49 108.05h-36.78l-51 90.64h30.47l8.8-16.34h59.68l.14.26 8.97 16.08h29.38l-49.66-90.64Zm-39 56.19 20.34-38.11.42.82 20.2 37.29h-40.96Z" fill="#4fc900"/>
        <path d="M769.09 177v-68.95h-26.88v90.64h89.95V177h-63.07Z" fill="#4fc900"/>
        <path d="M826 108.05v21.66h40.77v69h26.91v-69h40.8v-21.66H826Z" fill="#4fc900"/>
        <path d="M1044.59 108.05v33.93h-64.47v-33.93h-26.9v90.64h26.9v-35h64.47v35h26.88v-90.64h-26.88Z" fill="#4fc900"/>
        <path d="M329.82 1.08h36.19l27.32 57.87 27.2-57.87h36v87.14h-22.29l1.13-67.29-33.27 67.29h-18.21l-32.71-67.29.67 67.29h-22l-.03-87.14Z" fill="#1aa7e5"/>
        <path d="M594.85 1.08h36.31l45.41 66.27-.56-66.23h21.58v87.14h-36.65l-44.73-65.59.56 65.59h-21.92V1.08Z" fill="#1aa7e5"/>
        <path d="M717.02 1.08h22.82v87.14h-22.82V1.08Z" fill="#1aa7e5"/>
        <path d="M787.77 22.63h-33.43V1.08h89.59v21.55h-33.39v65.59h-22.77V22.63Z" fill="#1aa7e5"/>
        <path d="M977.56 1.08c14.84 2 77.67-5.24 88 5.48 4.39 4.05 6.41 11.5 6.41 23.26 0 16.2-3.37 22.6-12.93 25.08 14.82 1.08 11.67 19.76 11.92 33.32h-23.19c-.4-11.87 3.19-23.68-12.59-22h-35v22h-22.7l.08-87.14Zm58.34 43.89c11 0 13.15-1.56 13.15-10.19 0-5.61-.45-8-1.91-9.8-4-5.16-40.45-1.38-46.88-2.48v22.47h35.64Z" fill="#1aa7e5"/>
        <path d="M557.46 1.35c11.61 2.47 17.24 9.37 18.82 23.31.45 3.52.68 10.55.68 21.1 0 21-1.92 29.43-8.34 35.55-4.51 4.43-10.82 6.52-21.75 7-4.06.26-14.09.39-21.41.39-17.92 0-27.05-.39-31.56-1.44-8.34-1.69-13.18-5.34-16-11.72s-3.61-12.76-3.61-31.78c0-14.58.23-18.23 1.58-24.09 2.14-9.25 6.54-14.2 15-17.06C497.18.53 504.05 0 523.87 0c21.65.04 28.3.35 33.59 1.35Zm-56.12 23c-3 2.73-4 7-4 19.53s.91 17.46 3.72 20.19c3 2.87 6.76 3.39 24 3.39 19.72 0 23.78-.78 26.37-4.95 2.14-3.13 2.7-7.55 2.7-19.15 0-21.88-.33-22.14-28.51-22.14-16.73.05-21.35.7-24.28 3.18v-.05Z" fill="#1aa7e5"/>
        <path d="M940.35 1.35c11.6 2.47 17.24 9.37 18.82 23.31.45 3.52.67 10.55.67 21.1 0 21-1.91 29.43-8.34 35.55-4.5 4.43-10.82 6.52-21.75 7-4 .26-14.08.39-21.41.39-17.92 0-27.05-.39-31.56-1.44-8.33-1.69-13.18-5.34-16-11.72s-3.6-12.76-3.6-31.78c0-14.58.22-18.23 1.57-24.09 2.14-9.25 6.54-14.2 15-17.06C880.06.53 886.94 0 906.75 0c21.65.04 28.3.35 33.6 1.35Zm-56.13 23c-3 2.73-3.94 7-3.94 19.53s.9 17.46 3.72 20.19c3 2.87 6.76 3.39 24 3.39 19.72 0 23.78-.78 26.37-4.95 2.15-3.13 2.71-7.55 2.71-19.15 0-21.88-.34-22.14-28.51-22.14-16.8.05-21.42.7-24.35 3.18v-.05Z" fill="#1aa7e5"/>
    </g>
</svg>
